<mxfile host="Electron" modified="2024-09-05T07:55:21.646Z" agent="Mozilla/5.0 (Windows NT 10.0; Win64; x64) AppleWebKit/537.36 (KHTML, like Gecko) draw.io/23.1.5 Chrome/120.0.6099.109 Electron/28.1.0 Safari/537.36" etag="qys8qr_iUSPbbE0SXJlh" version="23.1.5" type="device">
  <diagram name="Страница — 1" id="4yH80kUzvXJpZru1wsrU">
    <mxGraphModel dx="1877" dy="629" grid="0" gridSize="10" guides="1" tooltips="1" connect="1" arrows="1" fold="1" page="1" pageScale="1" pageWidth="827" pageHeight="1169" math="0" shadow="0">
      <root>
        <mxCell id="0" />
        <mxCell id="1" parent="0" />
        <mxCell id="zWoP8p3UHELozqPJixs7-2" value="Business Logic" style="html=1;dropTarget=0;whiteSpace=wrap;" parent="1" vertex="1">
          <mxGeometry x="457" y="303" width="180" height="90" as="geometry" />
        </mxCell>
        <mxCell id="zWoP8p3UHELozqPJixs7-3" value="" style="shape=module;jettyWidth=8;jettyHeight=4;" parent="zWoP8p3UHELozqPJixs7-2" vertex="1">
          <mxGeometry x="1" width="20" height="20" relative="1" as="geometry">
            <mxPoint x="-27" y="7" as="offset" />
          </mxGeometry>
        </mxCell>
        <mxCell id="zWoP8p3UHELozqPJixs7-4" value="Data Access" style="html=1;dropTarget=0;whiteSpace=wrap;" parent="1" vertex="1">
          <mxGeometry x="711" y="303" width="180" height="90" as="geometry" />
        </mxCell>
        <mxCell id="zWoP8p3UHELozqPJixs7-5" value="" style="shape=module;jettyWidth=8;jettyHeight=4;" parent="zWoP8p3UHELozqPJixs7-4" vertex="1">
          <mxGeometry x="1" width="20" height="20" relative="1" as="geometry">
            <mxPoint x="-27" y="7" as="offset" />
          </mxGeometry>
        </mxCell>
        <mxCell id="zWoP8p3UHELozqPJixs7-6" value="" style="endArrow=classic;html=1;rounded=0;entryX=1;entryY=0.5;entryDx=0;entryDy=0;exitX=0;exitY=0.5;exitDx=0;exitDy=0;edgeStyle=orthogonalEdgeStyle;" parent="1" source="zWoP8p3UHELozqPJixs7-4" target="zWoP8p3UHELozqPJixs7-2" edge="1">
          <mxGeometry width="50" height="50" relative="1" as="geometry">
            <mxPoint x="531" y="448" as="sourcePoint" />
            <mxPoint x="581" y="398" as="targetPoint" />
          </mxGeometry>
        </mxCell>
        <mxCell id="zWoP8p3UHELozqPJixs7-10" value="Tech User Interface&amp;nbsp;" style="html=1;dropTarget=0;whiteSpace=wrap;" parent="1" vertex="1">
          <mxGeometry x="-63" y="377" width="180" height="90" as="geometry" />
        </mxCell>
        <mxCell id="zWoP8p3UHELozqPJixs7-11" value="" style="shape=module;jettyWidth=8;jettyHeight=4;" parent="zWoP8p3UHELozqPJixs7-10" vertex="1">
          <mxGeometry x="1" width="20" height="20" relative="1" as="geometry">
            <mxPoint x="-27" y="7" as="offset" />
          </mxGeometry>
        </mxCell>
        <mxCell id="k6s9lJhhbI6JQO6ZWGhj-1" value="User" style="shape=umlActor;verticalLabelPosition=bottom;verticalAlign=top;html=1;outlineConnect=0;" parent="1" vertex="1">
          <mxGeometry x="-158" y="392" width="30" height="60" as="geometry" />
        </mxCell>
        <mxCell id="k6s9lJhhbI6JQO6ZWGhj-5" value="" style="endArrow=classic;startArrow=classic;html=1;rounded=0;entryX=0;entryY=0.5;entryDx=0;entryDy=0;exitX=0.5;exitY=0.5;exitDx=0;exitDy=0;exitPerimeter=0;" parent="1" source="k6s9lJhhbI6JQO6ZWGhj-1" target="zWoP8p3UHELozqPJixs7-10" edge="1">
          <mxGeometry width="50" height="50" relative="1" as="geometry">
            <mxPoint x="270" y="366" as="sourcePoint" />
            <mxPoint x="320" y="316" as="targetPoint" />
          </mxGeometry>
        </mxCell>
        <mxCell id="k6s9lJhhbI6JQO6ZWGhj-6" value="Data&lt;br&gt;Storage" style="shape=datastore;whiteSpace=wrap;html=1;" parent="1" vertex="1">
          <mxGeometry x="965" y="304" width="85" height="88" as="geometry" />
        </mxCell>
        <mxCell id="k6s9lJhhbI6JQO6ZWGhj-7" value="" style="endArrow=classic;html=1;rounded=0;entryX=0;entryY=0.5;entryDx=0;entryDy=0;exitX=1;exitY=0.5;exitDx=0;exitDy=0;" parent="1" source="zWoP8p3UHELozqPJixs7-4" target="k6s9lJhhbI6JQO6ZWGhj-6" edge="1">
          <mxGeometry width="50" height="50" relative="1" as="geometry">
            <mxPoint x="402" y="358" as="sourcePoint" />
            <mxPoint x="467" y="358" as="targetPoint" />
          </mxGeometry>
        </mxCell>
        <mxCell id="E9jZBQmzSzIevxFfBVHL-1" value="User Interface&amp;nbsp;" style="html=1;dropTarget=0;whiteSpace=wrap;" vertex="1" parent="1">
          <mxGeometry x="-63" y="233" width="180" height="90" as="geometry" />
        </mxCell>
        <mxCell id="E9jZBQmzSzIevxFfBVHL-2" value="" style="shape=module;jettyWidth=8;jettyHeight=4;" vertex="1" parent="E9jZBQmzSzIevxFfBVHL-1">
          <mxGeometry x="1" width="20" height="20" relative="1" as="geometry">
            <mxPoint x="-27" y="7" as="offset" />
          </mxGeometry>
        </mxCell>
        <mxCell id="E9jZBQmzSzIevxFfBVHL-5" value="WebAPI" style="html=1;dropTarget=0;whiteSpace=wrap;" vertex="1" parent="1">
          <mxGeometry x="208" y="303" width="180" height="90" as="geometry" />
        </mxCell>
        <mxCell id="E9jZBQmzSzIevxFfBVHL-6" value="" style="shape=module;jettyWidth=8;jettyHeight=4;" vertex="1" parent="E9jZBQmzSzIevxFfBVHL-5">
          <mxGeometry x="1" width="20" height="20" relative="1" as="geometry">
            <mxPoint x="-27" y="7" as="offset" />
          </mxGeometry>
        </mxCell>
        <mxCell id="E9jZBQmzSzIevxFfBVHL-7" value="" style="endArrow=classic;html=1;rounded=0;exitX=1;exitY=0.5;exitDx=0;exitDy=0;entryX=0;entryY=0.5;entryDx=0;entryDy=0;" edge="1" parent="1" source="E9jZBQmzSzIevxFfBVHL-5" target="zWoP8p3UHELozqPJixs7-2">
          <mxGeometry width="50" height="50" relative="1" as="geometry">
            <mxPoint x="312" y="475" as="sourcePoint" />
            <mxPoint x="362" y="425" as="targetPoint" />
          </mxGeometry>
        </mxCell>
        <mxCell id="E9jZBQmzSzIevxFfBVHL-8" value="" style="endArrow=classic;html=1;rounded=0;entryX=0;entryY=0.75;entryDx=0;entryDy=0;exitX=1;exitY=0.5;exitDx=0;exitDy=0;edgeStyle=orthogonalEdgeStyle;" edge="1" parent="1" source="zWoP8p3UHELozqPJixs7-10" target="E9jZBQmzSzIevxFfBVHL-5">
          <mxGeometry width="50" height="50" relative="1" as="geometry">
            <mxPoint x="93" y="577" as="sourcePoint" />
            <mxPoint x="143" y="527" as="targetPoint" />
          </mxGeometry>
        </mxCell>
        <mxCell id="E9jZBQmzSzIevxFfBVHL-9" value="" style="endArrow=classic;html=1;rounded=0;entryX=0;entryY=0.25;entryDx=0;entryDy=0;exitX=1;exitY=0.5;exitDx=0;exitDy=0;edgeStyle=orthogonalEdgeStyle;" edge="1" parent="1" source="E9jZBQmzSzIevxFfBVHL-1" target="E9jZBQmzSzIevxFfBVHL-5">
          <mxGeometry width="50" height="50" relative="1" as="geometry">
            <mxPoint x="165" y="271" as="sourcePoint" />
            <mxPoint x="215" y="221" as="targetPoint" />
          </mxGeometry>
        </mxCell>
        <mxCell id="E9jZBQmzSzIevxFfBVHL-10" value="User" style="shape=umlActor;verticalLabelPosition=bottom;verticalAlign=top;html=1;outlineConnect=0;" vertex="1" parent="1">
          <mxGeometry x="-158" y="248" width="30" height="60" as="geometry" />
        </mxCell>
        <mxCell id="E9jZBQmzSzIevxFfBVHL-11" value="" style="endArrow=classic;startArrow=classic;html=1;rounded=0;entryX=0;entryY=0.5;entryDx=0;entryDy=0;exitX=0.5;exitY=0.5;exitDx=0;exitDy=0;exitPerimeter=0;" edge="1" parent="1" source="E9jZBQmzSzIevxFfBVHL-10" target="E9jZBQmzSzIevxFfBVHL-1">
          <mxGeometry width="50" height="50" relative="1" as="geometry">
            <mxPoint x="247" y="231" as="sourcePoint" />
            <mxPoint x="-86" y="287" as="targetPoint" />
          </mxGeometry>
        </mxCell>
      </root>
    </mxGraphModel>
  </diagram>
</mxfile>
